<?xml version="1.0" encoding="utf-8"?>
<!-- Generator: Adobe Illustrator 23.0.5, SVG Export Plug-In . SVG Version: 6.00 Build 0)  -->
<svg version="1.1" id="Layer_1" xmlns="http://www.w3.org/2000/svg" xmlns:xlink="http://www.w3.org/1999/xlink" x="0px" y="0px"
	 viewBox="0 0 1168.51 1000" style="enable-background:new 0 0 1168.51 1000;" xml:space="preserve">
<style type="text/css">
	.st0{fill:#B4E6FC;}
	.st1{fill:#7AC8FC;}
	.st2{fill:#EBE8EF;}
	.st3{fill:#9F9FA0;}
	.st4{fill:#FFFFFF;}
	.st5{fill:#C6C6C6;}
</style>
<rect x="668.51" class="st0" width="500" height="500"/>
<rect x="668.51" y="500" class="st1" width="500" height="500"/>
<g>
	<circle class="st2" cx="334.72" cy="244.85" r="171.86"/>
	<path d="M404.12,172.67c-0.78-4.41-1.46-8.82-2.29-13.85c-12.79,6.69-24.99,13.08-37.75,19.75c4.99,1.69,9.34,3.16,14.05,4.76
		c-10.79,17.79-21.54,35.49-32.28,53.19c-0.29-0.01-0.58-0.01-0.88-0.02c-0.81-19.14-1.62-38.29-2.44-57.88c5.31,0,10.21,0,15.99,0
		c-4.66-5.79-8.87-10.95-12.97-16.16c-3.53-4.48-6.94-9.01-10.4-13.52c-0.29,0-0.57,0-0.86,0c-5.31,6.79-10.6,13.59-15.92,20.38
		c-2.28,2.91-4.61,5.81-7.3,9.19c5.53,0,10.32,0,15.84,0c-0.82,19.55-1.63,38.77-2.43,57.99c-0.29,0.01-0.59,0.01-0.88,0.02
		c-10.71-17.64-21.42-35.28-32.28-53.18c4.46-1.51,8.85-3,14.04-4.76c-12.59-6.6-24.78-12.99-37.69-19.76
		c-0.82,4.81-1.54,9.17-2.31,13.53c-1.12,6.31-2.28,12.62-3.42,18.93c0,0.64,0,1.28,0,1.92c4.76-1.65,9.51-3.3,15.27-5.29
		c6.23,10.48,12.84,20.52,18.25,30.91c15.64,29.99,19.32,61.31,17.56,93.15c-0.53,9.6-1.31,19.19-1.98,28.78
		c15.79,0,31.58,0,47.38,0c-0.62-7.89-1.33-15.78-1.86-23.68c-3.02-44.81,9.42-87.24,35.51-127.55c0.24-0.37,0.59-0.7,1.1-1.3
		c4.84,1.68,9.59,3.32,14.35,4.97c0-0.64,0-1.28,0-1.92C406.38,185.08,405.22,178.88,404.12,172.67z"/>
</g>
<g>
	<g>
		<path d="M192.8,550.71l-0.12,28.95h-8.91l-0.12-21.95h-5.86v-7H192.8z M188.19,544.49c-1.75,0-3.04-0.44-3.86-1.32
			c-0.82-0.88-1.23-1.97-1.23-3.29c0-1.36,0.41-2.47,1.23-3.35c0.82-0.88,2.1-1.31,3.86-1.31c1.79,0,3.1,0.44,3.92,1.31
			c0.82,0.88,1.23,1.99,1.23,3.35c0,1.32-0.41,2.41-1.23,3.29C191.29,544.05,189.98,544.49,188.19,544.49z"/>
		<path d="M199.91,579.66l-0.12-27.4c5.42-1.68,10.23-2.51,14.42-2.51c4.51,0,7.78,0.76,9.81,2.27c2.03,1.52,3.05,3.85,3.05,7
			c0,1.79-0.03,5.54-0.09,11.24c-0.06,5.7-0.09,8.83-0.09,9.39h-9.03l0.06-17.64c0-2.91-1.42-4.37-4.25-4.37
			c-0.64,0-2.21,0.24-4.73,0.72l-0.06,21.29H199.91z"/>
		<path d="M264.75,550.95l-0.18,28.71h-8.91l-0.12-21.71h-11.48v33.62h-8.85v-33.62h-4.61v-7h4.55c-0.08-1.51-0.12-2.71-0.12-3.59
			c0-3.83,1.04-6.69,3.11-8.58c2.07-1.89,4.88-2.84,8.43-2.84c2.19,0,4.13,0.38,5.8,1.14l-1.32,6.94c-0.96-0.36-1.91-0.54-2.87-0.54
			c-1.36,0-2.4,0.39-3.14,1.17c-0.74,0.78-1.11,1.88-1.11,3.32c0,1.28,0.02,2.27,0.06,2.99H264.75z M260.15,544.49
			c-1.75,0-3.04-0.44-3.86-1.32c-0.82-0.88-1.23-1.97-1.23-3.29c0-1.36,0.41-2.47,1.23-3.35c0.82-0.88,2.1-1.31,3.86-1.31
			c1.79,0,3.1,0.44,3.92,1.31c0.82,0.88,1.23,1.99,1.23,3.35c0,1.32-0.41,2.41-1.23,3.29C263.25,544.05,261.94,544.49,260.15,544.49
			z"/>
		<path d="M271.87,579.66l-0.12-27.4c5.42-1.68,10.23-2.51,14.42-2.51c4.51,0,7.78,0.76,9.81,2.27c2.03,1.52,3.05,3.85,3.05,7
			c0,1.79-0.03,5.54-0.09,11.24c-0.06,5.7-0.09,8.83-0.09,9.39h-9.03l0.06-17.64c0-2.91-1.42-4.37-4.25-4.37
			c-0.64,0-2.21,0.24-4.73,0.72l-0.06,21.29H271.87z"/>
		<path d="M318.82,550.71l-0.12,28.95h-8.91l-0.12-21.95h-5.86v-7H318.82z M314.22,544.49c-1.75,0-3.04-0.44-3.86-1.32
			c-0.82-0.88-1.23-1.97-1.23-3.29c0-1.36,0.41-2.47,1.23-3.35c0.82-0.88,2.1-1.31,3.86-1.31c1.79,0,3.1,0.44,3.92,1.31
			c0.82,0.88,1.23,1.99,1.23,3.35c0,1.32-0.41,2.41-1.23,3.29C317.32,544.05,316.01,544.49,314.22,544.49z"/>
		<path d="M345.86,557.95h-9.33c-0.04,2.39-0.06,5.56-0.06,9.51c0,3.11,1.3,4.66,3.89,4.66c1.04,0,2.09-0.18,3.17-0.54l1.44,6.7
			c-2.23,1.16-4.78,1.73-7.66,1.73c-6.5,0-9.75-3.71-9.75-11.13c0-1.95,0.04-5.6,0.12-10.95h-4.96v-7.12h5.02v-6.82h8.85v6.82h9.27
			V557.95z"/>
		<path d="M376.96,559.92c0,1.95-0.46,3.49-1.38,4.61c-0.92,1.12-2.78,2.01-5.59,2.69c-2.81,0.68-6.79,1.02-11.93,1.02
			c0.36,1.87,1.07,3.19,2.12,3.95c1.06,0.76,2.58,1.14,4.58,1.14c2.67,0.04,5.58-0.44,8.73-1.44l1.67,6.04
			c-3.91,1.55-7.56,2.33-10.95,2.33c-4.71,0-8.34-1.33-10.92-3.98c-2.57-2.65-3.86-6.19-3.86-10.62c0-2.07,0.25-4.01,0.75-5.8
			c0.5-1.8,1.3-3.46,2.39-5c1.1-1.53,2.62-2.74,4.58-3.62c1.95-0.88,4.27-1.32,6.94-1.32c4.23,0,7.43,0.92,9.6,2.75
			C375.87,554.52,376.96,556.93,376.96,559.92z M357.94,562.43c4.47,0,7.47-0.23,9-0.69c1.53-0.46,2.3-1.26,2.3-2.42
			c0-1.99-1.64-2.99-4.9-2.99C360.55,556.33,358.42,558.37,357.94,562.43z"/>
		<path d="M408.24,549.75c5.62,0,9.72,1.4,12.29,4.19c2.57,2.79,3.86,6.56,3.86,11.3c0,4.43-1.18,8.03-3.53,10.8
			c-2.35,2.77-5.76,4.16-10.23,4.16c-2.07,0-4.07-0.4-5.98-1.2v12.56h-9.15v-39.3C400.09,550.59,404.34,549.75,408.24,549.75z
			 M409.14,572.36c1.99,0,3.53-0.64,4.61-1.91c1.08-1.28,1.61-2.95,1.61-5.03c0-2.27-0.52-4.09-1.56-5.44
			c-1.04-1.36-2.67-2.03-4.9-2.03c-1.44,0-2.85,0.28-4.25,0.84v12.32C406.21,571.94,407.71,572.36,409.14,572.36z"/>
		<path d="M458.55,579.36l-8.13,1.14c-0.32-0.6-0.66-1.44-1.02-2.51c-2.15,1.48-4.61,2.21-7.36,2.21c-4.43,0-7.77-1.37-10.02-4.1
			c-2.25-2.73-3.38-6.13-3.38-10.2c0-5.02,1.42-8.97,4.25-11.84c2.83-2.87,7.28-4.31,13.34-4.31c3.35,0,7.12,0.62,11.3,1.85v17.82
			C457.53,572.74,457.87,576.05,458.55,579.36z M443.47,572.36c2.23,0,3.91-0.82,5.02-2.45v-0.18v-11.54
			c-1.6-0.28-2.79-0.42-3.59-0.42c-4.9,0-7.36,2.55-7.36,7.66c0,1.99,0.55,3.65,1.64,4.96
			C440.29,571.71,441.72,572.36,443.47,572.36z"/>
		<path d="M484.63,557.95h-9.33c-0.04,2.39-0.06,5.56-0.06,9.51c0,3.11,1.3,4.66,3.89,4.66c1.04,0,2.09-0.18,3.17-0.54l1.44,6.7
			c-2.23,1.16-4.78,1.73-7.66,1.73c-6.5,0-9.75-3.71-9.75-11.13c0-1.95,0.04-5.6,0.12-10.95h-4.96v-7.12h5.02v-6.82h8.85v6.82h9.27
			V557.95z"/>
		<path d="M507.35,550.23c3.31,0,5.85,0.77,7.63,2.3c1.77,1.53,2.66,3.78,2.66,6.73c0,1.95-0.05,5.82-0.15,11.6
			c-0.1,5.78-0.15,8.71-0.15,8.79h-9.15c0-0.16,0.02-1.41,0.06-3.74c0.04-2.33,0.09-4.92,0.15-7.78c0.06-2.85,0.09-4.97,0.09-6.37
			c0-1.32-0.37-2.25-1.11-2.81c-0.74-0.56-1.9-0.84-3.5-0.84c-2.19,0-3.89,0.34-5.08,1.02l-0.06,20.52h-8.85l-0.24-44.86h9.33
			l-0.12,16.69C501.85,550.65,504.68,550.23,507.35,550.23z"/>
		<path d="M535.11,580.08c-1.95,0-4-0.28-6.13-0.84s-3.9-1.23-5.29-2.03l2.45-5.68c2.67,1.12,5.46,1.67,8.37,1.67
			c1.08,0,2.03-0.2,2.87-0.6c0.84-0.4,1.26-1,1.26-1.8c0-0.36-0.08-0.66-0.24-0.9c-0.16-0.24-0.52-0.46-1.07-0.66
			c-0.56-0.2-1.08-0.35-1.57-0.44c-0.49-0.1-1.34-0.27-2.55-0.51c-3.35-0.64-5.8-1.62-7.34-2.94c-1.54-1.32-2.31-3.29-2.31-5.89
			c0-3.23,1.07-5.64,3.2-7.24c2.13-1.6,5.03-2.39,8.7-2.39c3.55,0,6.94,0.88,10.17,2.63l-2.39,5.92c-2.39-1.04-4.69-1.58-6.88-1.61
			c-1.56-0.04-2.78,0.14-3.68,0.54c-0.9,0.4-1.35,0.96-1.35,1.67c0,0.62,0.18,1.13,0.55,1.51c0.37,0.38,0.81,0.64,1.33,0.76
			s1.38,0.33,2.58,0.62c4.02,0.96,6.8,2.03,8.35,3.2c1.55,1.17,2.32,2.91,2.32,5.22c0,1.44-0.26,2.74-0.78,3.92
			c-0.52,1.18-1.18,2.12-1.97,2.84c-0.8,0.72-1.72,1.32-2.75,1.8c-1.04,0.48-2.04,0.81-3.02,0.99
			C536.97,579.99,536.02,580.08,535.11,580.08z"/>
	</g>
	<path d="M168.26,527.72c-0.25-1.4-0.47-2.81-0.73-4.41c-4.07,2.13-7.96,4.16-12.02,6.29c1.59,0.54,2.97,1.01,4.47,1.52
		c-3.44,5.66-6.86,11.3-10.28,16.94c-0.09,0-0.19,0-0.28-0.01c-0.26-6.1-0.52-12.19-0.78-18.43c1.69,0,3.25,0,5.09,0
		c-1.48-1.84-2.82-3.49-4.13-5.15c-1.12-1.43-2.21-2.87-3.31-4.31c-0.09,0-0.18,0-0.27,0c-1.69,2.16-3.38,4.33-5.07,6.49
		c-0.73,0.93-1.47,1.85-2.33,2.93c1.76,0,3.29,0,5.04,0c-0.26,6.23-0.52,12.35-0.77,18.47c-0.09,0-0.19,0-0.28,0.01
		c-3.41-5.62-6.82-11.24-10.28-16.94c1.42-0.48,2.82-0.96,4.47-1.52c-4.01-2.1-7.89-4.14-12-6.29c-0.26,1.53-0.49,2.92-0.74,4.31
		c-0.36,2.01-0.73,4.02-1.09,6.03c0,0.2,0,0.41,0,0.61c1.51-0.52,3.03-1.05,4.86-1.68c1.98,3.34,4.09,6.54,5.81,9.85
		c4.98,9.55,6.15,19.53,5.59,29.67c-0.17,3.06-0.42,6.11-0.63,9.17c5.03,0,10.06,0,15.09,0c-0.2-2.51-0.42-5.03-0.59-7.54
		c-0.96-14.27,3-27.78,11.31-40.63c0.08-0.12,0.19-0.22,0.35-0.41c1.54,0.53,3.06,1.06,4.57,1.58c0-0.2,0-0.41,0-0.61
		C168.98,531.67,168.61,529.7,168.26,527.72z"/>
</g>
<g>
	<g>
		<path class="st3" d="M259.48,646.5l-0.06,15.35h-4.72l-0.06-11.64h-3.11v-3.71H259.48z M257.04,643.2c-0.93,0-1.61-0.23-2.04-0.7
			c-0.43-0.46-0.65-1.05-0.65-1.74c0-0.72,0.22-1.31,0.65-1.78c0.43-0.46,1.11-0.7,2.04-0.7c0.95,0,1.64,0.23,2.08,0.7
			c0.43,0.47,0.65,1.06,0.65,1.78c0,0.7-0.22,1.28-0.65,1.74C258.69,642.97,257.99,643.2,257.04,643.2z"/>
		<path class="st3" d="M263.26,661.85l-0.06-14.52c2.87-0.89,5.42-1.33,7.64-1.33c2.39,0,4.12,0.4,5.2,1.21
			c1.08,0.8,1.62,2.04,1.62,3.71c0,0.95-0.02,2.94-0.05,5.96c-0.03,3.02-0.05,4.68-0.05,4.98h-4.79l0.03-9.35
			c0-1.54-0.75-2.31-2.25-2.31c-0.34,0-1.17,0.13-2.5,0.38l-0.03,11.29H263.26z"/>
		<path class="st3" d="M297.63,646.63l-0.1,15.22h-4.72l-0.06-11.51h-6.09v17.82h-4.69v-17.82h-2.44v-3.71h2.41
			c-0.04-0.8-0.06-1.44-0.06-1.9c0-2.03,0.55-3.55,1.65-4.55c1.1-1,2.59-1.51,4.47-1.51c1.16,0,2.19,0.2,3.08,0.6l-0.7,3.68
			c-0.51-0.19-1.01-0.29-1.52-0.29c-0.72,0-1.27,0.21-1.66,0.62c-0.39,0.41-0.59,1-0.59,1.76c0,0.68,0.01,1.2,0.03,1.58H297.63z
			 M295.19,643.2c-0.93,0-1.61-0.23-2.04-0.7c-0.43-0.46-0.65-1.05-0.65-1.74c0-0.72,0.22-1.31,0.65-1.78
			c0.43-0.46,1.11-0.7,2.04-0.7c0.95,0,1.64,0.23,2.08,0.7c0.43,0.47,0.65,1.06,0.65,1.78c0,0.7-0.22,1.28-0.65,1.74
			C296.83,642.97,296.14,643.2,295.19,643.2z"/>
		<path class="st3" d="M301.4,661.85l-0.06-14.52c2.87-0.89,5.42-1.33,7.64-1.33c2.39,0,4.12,0.4,5.2,1.21
			c1.08,0.8,1.62,2.04,1.62,3.71c0,0.95-0.02,2.94-0.05,5.96c-0.03,3.02-0.05,4.68-0.05,4.98h-4.79l0.03-9.35
			c0-1.54-0.75-2.31-2.25-2.31c-0.34,0-1.17,0.13-2.5,0.38l-0.03,11.29H301.4z"/>
		<path class="st3" d="M326.29,646.5l-0.06,15.35h-4.72l-0.06-11.64h-3.11v-3.71H326.29z M323.85,643.2c-0.93,0-1.61-0.23-2.04-0.7
			c-0.43-0.46-0.65-1.05-0.65-1.74c0-0.72,0.22-1.31,0.65-1.78c0.43-0.46,1.11-0.7,2.04-0.7c0.95,0,1.64,0.23,2.08,0.7
			c0.43,0.47,0.65,1.06,0.65,1.78c0,0.7-0.22,1.28-0.65,1.74C325.5,642.97,324.8,643.2,323.85,643.2z"/>
		<path class="st3" d="M340.63,650.34h-4.95c-0.02,1.27-0.03,2.95-0.03,5.04c0,1.65,0.69,2.47,2.06,2.47c0.55,0,1.11-0.1,1.68-0.29
			l0.76,3.55c-1.18,0.61-2.54,0.92-4.06,0.92c-3.45,0-5.17-1.97-5.17-5.9c0-1.04,0.02-2.97,0.06-5.8h-2.63v-3.77h2.66v-3.62h4.69
			v3.62h4.91V650.34z"/>
		<path class="st3" d="M357.11,651.38c0,1.04-0.24,1.85-0.73,2.44c-0.49,0.59-1.47,1.07-2.96,1.43c-1.49,0.36-3.6,0.54-6.33,0.54
			c0.19,0.99,0.57,1.69,1.13,2.09c0.56,0.4,1.37,0.6,2.43,0.6c1.42,0.02,2.96-0.23,4.63-0.76l0.89,3.2
			c-2.07,0.82-4.01,1.24-5.8,1.24c-2.49,0-4.42-0.7-5.79-2.11c-1.36-1.41-2.05-3.28-2.05-5.63c0-1.1,0.13-2.12,0.4-3.08
			c0.26-0.95,0.69-1.83,1.27-2.65c0.58-0.81,1.39-1.45,2.43-1.92c1.04-0.47,2.26-0.7,3.68-0.7c2.24,0,3.94,0.49,5.09,1.46
			C356.54,648.52,357.11,649.8,357.11,651.38z M347.03,652.72c2.37,0,3.96-0.12,4.77-0.36c0.81-0.24,1.22-0.67,1.22-1.28
			c0-1.06-0.87-1.58-2.6-1.58C348.42,649.48,347.29,650.56,347.03,652.72z"/>
		<path class="st3" d="M373.7,645.99c2.98,0,5.15,0.74,6.52,2.22c1.36,1.48,2.05,3.48,2.05,5.99c0,2.35-0.62,4.25-1.87,5.72
			c-1.25,1.47-3.05,2.2-5.42,2.2c-1.1,0-2.16-0.21-3.17-0.63v6.66h-4.85v-20.83C369.37,646.44,371.63,645.99,373.7,645.99z
			 M374.17,657.98c1.06,0,1.87-0.34,2.44-1.01c0.57-0.68,0.86-1.56,0.86-2.66c0-1.2-0.27-2.17-0.82-2.89
			c-0.55-0.72-1.42-1.08-2.6-1.08c-0.76,0-1.51,0.15-2.25,0.44v6.53C372.62,657.76,373.41,657.98,374.17,657.98z"/>
		<path class="st3" d="M400.37,661.69l-4.31,0.6c-0.17-0.32-0.35-0.76-0.54-1.33c-1.14,0.78-2.44,1.17-3.9,1.17
			c-2.35,0-4.12-0.72-5.31-2.17c-1.19-1.45-1.79-3.25-1.79-5.41c0-2.66,0.75-4.76,2.25-6.28c1.5-1.52,3.86-2.28,7.07-2.28
			c1.78,0,3.77,0.33,5.99,0.98v9.45C399.83,658.18,400.01,659.94,400.37,661.69z M392.37,657.98c1.18,0,2.07-0.43,2.66-1.3v-0.1
			v-6.12c-0.85-0.15-1.48-0.22-1.9-0.22c-2.6,0-3.9,1.35-3.9,4.06c0,1.06,0.29,1.93,0.87,2.63
			C390.69,657.63,391.44,657.98,392.37,657.98z"/>
		<path class="st3" d="M414.19,650.34h-4.95c-0.02,1.27-0.03,2.95-0.03,5.04c0,1.65,0.69,2.47,2.06,2.47c0.55,0,1.11-0.1,1.68-0.29
			l0.76,3.55c-1.18,0.61-2.54,0.92-4.06,0.92c-3.45,0-5.17-1.97-5.17-5.9c0-1.04,0.02-2.97,0.06-5.8h-2.63v-3.77h2.66v-3.62h4.69
			v3.62h4.91V650.34z"/>
		<path class="st3" d="M426.24,646.25c1.75,0,3.1,0.41,4.04,1.22c0.94,0.81,1.41,2,1.41,3.57c0,1.04-0.03,3.09-0.08,6.15
			c-0.05,3.07-0.08,4.62-0.08,4.66h-4.85c0-0.08,0.01-0.74,0.03-1.98c0.02-1.24,0.05-2.61,0.08-4.12c0.03-1.51,0.05-2.64,0.05-3.38
			c0-0.7-0.2-1.19-0.59-1.49c-0.39-0.3-1.01-0.44-1.85-0.44c-1.16,0-2.06,0.18-2.7,0.54l-0.03,10.88h-4.69l-0.13-23.78h4.95
			l-0.06,8.85C423.32,646.47,424.82,646.25,426.24,646.25z"/>
		<path class="st3" d="M440.95,662.07c-1.04,0-2.12-0.15-3.25-0.44s-2.07-0.65-2.81-1.08l1.3-3.01c1.42,0.59,2.9,0.89,4.44,0.89
			c0.57,0,1.08-0.11,1.52-0.32c0.44-0.21,0.67-0.53,0.67-0.96c0-0.19-0.04-0.35-0.13-0.48s-0.27-0.24-0.57-0.35
			c-0.3-0.11-0.57-0.18-0.83-0.24c-0.26-0.05-0.71-0.14-1.35-0.27c-1.78-0.34-3.07-0.86-3.89-1.56c-0.81-0.7-1.22-1.74-1.22-3.12
			c0-1.71,0.57-2.99,1.7-3.84c1.13-0.85,2.67-1.27,4.61-1.27c1.88,0,3.68,0.47,5.39,1.39l-1.27,3.14c-1.27-0.55-2.48-0.84-3.65-0.86
			c-0.82-0.02-1.47,0.07-1.95,0.29c-0.48,0.21-0.71,0.51-0.71,0.89c0,0.33,0.1,0.6,0.29,0.8c0.2,0.2,0.43,0.34,0.71,0.4
			s0.73,0.18,1.37,0.33c2.13,0.51,3.6,1.07,4.42,1.7c0.82,0.62,1.23,1.54,1.23,2.77c0,0.76-0.14,1.45-0.41,2.08
			c-0.27,0.62-0.62,1.13-1.05,1.51c-0.42,0.38-0.91,0.7-1.46,0.95c-0.55,0.25-1.08,0.43-1.6,0.52
			C441.94,662.02,441.44,662.07,440.95,662.07z"/>
	</g>
	<path class="st3" d="M246.48,634.31c-0.13-0.74-0.25-1.49-0.39-2.34c-2.16,1.13-4.22,2.21-6.37,3.33c0.84,0.29,1.58,0.53,2.37,0.8
		c-1.82,3-3.64,5.99-5.45,8.98c-0.05,0-0.1,0-0.15,0c-0.14-3.23-0.27-6.46-0.41-9.77c0.9,0,1.72,0,2.7,0
		c-0.79-0.98-1.5-1.85-2.19-2.73c-0.6-0.76-1.17-1.52-1.76-2.28c-0.05,0-0.1,0-0.15,0c-0.9,1.15-1.79,2.3-2.69,3.44
		c-0.39,0.49-0.78,0.98-1.23,1.55c0.93,0,1.74,0,2.67,0c-0.14,3.3-0.27,6.55-0.41,9.79c-0.05,0-0.1,0-0.15,0
		c-1.81-2.98-3.62-5.96-5.45-8.98c0.75-0.26,1.49-0.51,2.37-0.8c-2.13-1.11-4.18-2.19-6.36-3.34c-0.14,0.81-0.26,1.55-0.39,2.28
		c-0.19,1.07-0.38,2.13-0.58,3.2c0,0.11,0,0.22,0,0.32c0.8-0.28,1.61-0.56,2.58-0.89c1.05,1.77,2.17,3.47,3.08,5.22
		c2.64,5.06,3.26,10.35,2.97,15.73c-0.09,1.62-0.22,3.24-0.33,4.86c2.67,0,5.33,0,8,0c-0.11-1.33-0.22-2.66-0.31-4
		c-0.51-7.57,1.59-14.73,6-21.54c0.04-0.06,0.1-0.12,0.19-0.22c0.82,0.28,1.62,0.56,2.42,0.84c0-0.11,0-0.22,0-0.32
		C246.86,636.41,246.66,635.36,246.48,634.31z"/>
</g>
<g>
	<path class="st4" d="M995.66,374.7H842.95c-28.12,0-50.92-22.8-50.92-50.92V171.07c0-28.12,22.8-50.92,50.92-50.92h152.71
		c28.12,0,50.92,22.8,50.92,50.92v152.71C1046.58,351.9,1023.78,374.7,995.66,374.7z"/>
	<path d="M975.9,188.56c-0.63-3.59-1.19-7.19-1.87-11.3c-10.43,5.46-20.38,10.66-30.78,16.1c4.07,1.38,7.62,2.58,11.46,3.88
		c-8.8,14.5-17.56,28.94-26.32,43.38c-0.24,0-0.48-0.01-0.72-0.01c-0.66-15.61-1.32-31.22-1.99-47.2c4.33,0,8.33,0,13.04,0
		c-3.8-4.72-7.23-8.93-10.58-13.18c-2.88-3.65-5.66-7.35-8.48-11.03c-0.23,0-0.47,0-0.7,0c-4.33,5.54-8.65,11.08-12.98,16.62
		c-1.86,2.38-3.76,4.74-5.95,7.49c4.51,0,8.42,0,12.91,0c-0.67,15.95-1.33,31.62-1.98,47.29c-0.24,0.01-0.48,0.01-0.72,0.02
		c-8.73-14.39-17.46-28.77-26.32-43.36c3.64-1.23,7.21-2.45,11.45-3.88c-10.26-5.38-20.21-10.59-30.73-16.11
		c-0.67,3.92-1.26,7.48-1.89,11.03c-0.91,5.15-1.86,10.29-2.79,15.44c0,0.52,0,1.05,0,1.57c3.88-1.34,7.76-2.69,12.45-4.31
		c5.08,8.54,10.47,16.74,14.89,25.21c12.76,24.45,15.75,50,14.32,75.96c-0.43,7.83-1.07,15.65-1.62,23.47c12.88,0,25.76,0,38.64,0
		c-0.51-6.44-1.08-12.87-1.52-19.31c-2.47-36.54,7.68-71.14,28.96-104.02c0.2-0.3,0.48-0.57,0.9-1.06c3.94,1.37,7.82,2.71,11.7,4.05
		c0-0.52,0-1.05,0-1.57C977.74,198.68,976.79,193.63,975.9,188.56z"/>
</g>
<g>
	<path d="M995.66,889.57H842.95c-28.12,0-50.92-22.8-50.92-50.92V685.95c0-28.12,22.8-50.92,50.92-50.92h152.71
		c28.12,0,50.92,22.8,50.92,50.92v152.71C1046.58,866.78,1023.78,889.57,995.66,889.57z"/>
	<path class="st4" d="M975.9,703.44c-0.63-3.59-1.19-7.19-1.87-11.3c-10.43,5.46-20.38,10.66-30.78,16.1
		c4.07,1.38,7.62,2.58,11.46,3.88c-8.8,14.5-17.56,28.94-26.32,43.38c-0.24,0-0.48-0.01-0.72-0.01c-0.66-15.61-1.32-31.22-1.99-47.2
		c4.33,0,8.33,0,13.04,0c-3.8-4.72-7.23-8.93-10.58-13.18c-2.88-3.65-5.66-7.35-8.48-11.03c-0.23,0-0.47,0-0.7,0
		c-4.33,5.54-8.65,11.08-12.98,16.62c-1.86,2.38-3.76,4.74-5.95,7.49c4.51,0,8.42,0,12.91,0c-0.67,15.95-1.33,31.62-1.98,47.29
		c-0.24,0.01-0.48,0.01-0.72,0.02c-8.73-14.39-17.46-28.77-26.32-43.36c3.64-1.23,7.21-2.45,11.45-3.88
		c-10.26-5.38-20.21-10.59-30.73-16.11c-0.67,3.92-1.26,7.48-1.89,11.03c-0.91,5.15-1.86,10.29-2.79,15.44c0,0.52,0,1.05,0,1.57
		c3.88-1.34,7.76-2.69,12.45-4.31c5.08,8.54,10.47,16.74,14.89,25.21c12.76,24.45,15.75,50,14.32,75.96
		c-0.43,7.83-1.07,15.65-1.62,23.47c12.88,0,25.76,0,38.64,0c-0.51-6.44-1.08-12.87-1.52-19.31c-2.47-36.54,7.68-71.14,28.96-104.02
		c0.2-0.3,0.48-0.57,0.9-1.06c3.94,1.37,7.82,2.71,11.7,4.05c0-0.52,0-1.05,0-1.57C977.74,713.56,976.79,708.5,975.9,703.44z"/>
</g>
<g>
	<path d="M256.93,914.45h-79.31c-20.66,0-37.41-16.75-37.41-37.41v-79.31c0-20.66,16.75-37.41,37.41-37.41h79.31
		c20.66,0,37.41,16.75,37.41,37.41v79.31C294.34,897.7,277.59,914.45,256.93,914.45z"/>
	<path class="st5" d="M249.21,804.17c-0.36-2.03-0.67-4.06-1.05-6.37c-5.88,3.08-11.5,6.02-17.37,9.09c2.29,0.78,4.3,1.46,6.46,2.19
		c-4.97,8.18-9.91,16.33-14.85,24.47c-0.13,0-0.27-0.01-0.4-0.01c-0.37-8.81-0.74-17.62-1.12-26.63c2.44,0,4.7,0,7.36,0
		c-2.14-2.66-4.08-5.04-5.97-7.43c-1.62-2.06-3.19-4.15-4.79-6.22c-0.13,0-0.26,0-0.4,0c-2.44,3.13-4.88,6.25-7.33,9.38
		c-1.05,1.34-2.12,2.67-3.36,4.23c2.54,0,4.75,0,7.29,0c-0.38,9-0.75,17.84-1.12,26.68c-0.14,0-0.27,0.01-0.41,0.01
		c-4.93-8.12-9.85-16.24-14.85-24.47c2.05-0.7,4.07-1.38,6.46-2.19c-5.79-3.04-11.4-5.98-17.34-9.09c-0.38,2.21-0.71,4.22-1.06,6.22
		c-0.52,2.9-1.05,5.81-1.57,8.71c0,0.3,0,0.59,0,0.89c2.19-0.76,4.38-1.52,7.02-2.43c2.87,4.82,5.91,9.44,8.4,14.22
		c7.2,13.8,8.89,28.21,8.08,42.86c-0.24,4.42-0.6,8.83-0.91,13.24c7.27,0,14.53,0,21.8,0c-0.29-3.63-0.61-7.26-0.86-10.89
		c-1.39-20.62,4.34-40.14,16.34-58.69c0.11-0.17,0.27-0.32,0.51-0.6c2.23,0.77,4.41,1.53,6.6,2.29c0-0.3,0-0.59,0-0.89
		C250.24,809.88,249.71,807.02,249.21,804.17z"/>
</g>
<g>
	<path class="st5" d="M443.24,914.45h-79.31c-20.66,0-37.41-16.75-37.41-37.41v-79.31c0-20.66,16.75-37.41,37.41-37.41h79.31
		c20.66,0,37.41,16.75,37.41,37.41v79.31C480.66,897.7,463.91,914.45,443.24,914.45z"/>
	<path class="st4" d="M435.52,804.17c-0.36-2.03-0.67-4.06-1.05-6.37c-5.88,3.08-11.5,6.02-17.37,9.09c2.29,0.78,4.3,1.46,6.46,2.19
		c-4.97,8.18-9.91,16.33-14.85,24.47c-0.13,0-0.27-0.01-0.4-0.01c-0.37-8.81-0.74-17.62-1.12-26.63c2.44,0,4.7,0,7.36,0
		c-2.14-2.66-4.08-5.04-5.97-7.43c-1.62-2.06-3.19-4.15-4.79-6.22c-0.13,0-0.26,0-0.4,0c-2.44,3.13-4.88,6.25-7.33,9.38
		c-1.05,1.34-2.12,2.67-3.36,4.23c2.54,0,4.75,0,7.29,0c-0.38,9-0.75,17.84-1.12,26.68c-0.14,0-0.27,0.01-0.41,0.01
		c-4.93-8.12-9.85-16.24-14.85-24.47c2.05-0.7,4.07-1.38,6.46-2.19c-5.79-3.04-11.4-5.98-17.34-9.09c-0.38,2.21-0.71,4.22-1.06,6.22
		c-0.52,2.9-1.05,5.81-1.57,8.71c0,0.3,0,0.59,0,0.89c2.19-0.76,4.38-1.52,7.02-2.43c2.87,4.82,5.91,9.44,8.4,14.22
		c7.2,13.8,8.89,28.21,8.08,42.86c-0.24,4.42-0.6,8.83-0.91,13.24c7.27,0,14.53,0,21.8,0c-0.29-3.63-0.61-7.26-0.86-10.89
		c-1.39-20.62,4.34-40.14,16.34-58.69c0.11-0.17,0.27-0.32,0.51-0.6c2.23,0.77,4.41,1.53,6.6,2.29c0-0.3,0-0.59,0-0.89
		C436.56,809.88,436.02,807.02,435.52,804.17z"/>
</g>
</svg>
