<?xml version="1.0" encoding="UTF-8" standalone="no"?>
<!DOCTYPE svg PUBLIC "-//W3C//DTD SVG 20010904//EN"
              "http://www.w3.org/TR/2001/REC-SVG-20010904/DTD/svg10.dtd">

<svg xmlns="http://www.w3.org/2000/svg"
     width="1.81in" height="1.71in"
     viewBox="0 0 543 513">
  <path id="Selection"
        fill="none" stroke="black" stroke-width="1"
        d="M 186.00,129.15
           C 160.50,134.97 144.04,153.58 144.00,180.00
             144.00,180.00 144.00,333.00 144.00,333.00
             144.04,361.57 165.12,383.95 194.00,384.00
             194.00,384.00 350.00,384.00 350.00,384.00
             376.97,383.96 398.96,361.97 399.00,335.00
             399.00,335.00 399.00,178.00 399.00,178.00
             398.96,150.22 376.47,129.04 349.00,129.15
             349.00,129.15 242.00,129.15 242.00,129.15
             242.00,129.15 186.00,129.15 186.00,129.15 Z
           M 270.00,180.00
           C 270.00,180.00 270.00,181.00 270.00,181.00
             270.00,181.00 269.00,180.00 269.00,180.00
             269.00,180.00 270.00,180.00 270.00,180.00 Z
           M 269.00,181.00
           C 269.00,181.00 269.00,182.00 269.00,182.00
             269.00,182.00 268.00,181.00 268.00,181.00
             268.00,181.00 269.00,181.00 269.00,181.00 Z
           M 275.00,181.00
           C 275.00,181.00 275.00,182.00 275.00,182.00
             275.00,182.00 274.00,181.00 274.00,181.00
             274.00,181.00 275.00,181.00 275.00,181.00 Z
           M 276.00,182.00
           C 276.00,182.00 276.00,183.00 276.00,183.00
             276.00,183.00 275.00,182.00 275.00,182.00
             275.00,182.00 276.00,182.00 276.00,182.00 Z
           M 267.00,184.00
           C 267.00,184.00 267.00,185.00 267.00,185.00
             267.00,185.00 266.00,184.00 266.00,184.00
             266.00,184.00 267.00,184.00 267.00,184.00 Z
           M 266.00,185.00
           C 266.00,185.00 266.00,186.00 266.00,186.00
             266.00,186.00 265.00,185.00 265.00,185.00
             265.00,185.00 266.00,185.00 266.00,185.00 Z
           M 278.00,185.00
           C 278.00,185.00 278.00,186.00 278.00,186.00
             278.00,186.00 277.00,185.00 277.00,185.00
             277.00,185.00 278.00,185.00 278.00,185.00 Z
           M 218.00,186.00
           C 218.00,186.00 217.00,191.00 217.00,191.00
             217.00,191.00 216.00,186.00 216.00,186.00
             216.00,186.00 218.00,186.00 218.00,186.00 Z
           M 265.00,186.00
           C 265.00,186.00 265.00,187.00 265.00,187.00
             265.00,187.00 264.00,186.00 264.00,186.00
             264.00,186.00 265.00,186.00 265.00,186.00 Z
           M 279.00,186.00
           C 279.00,186.00 279.00,187.00 279.00,187.00
             279.00,187.00 278.00,186.00 278.00,186.00
             278.00,186.00 279.00,186.00 279.00,186.00 Z
           M 220.00,187.00
           C 220.00,187.00 220.00,188.00 220.00,188.00
             220.00,188.00 219.00,187.00 219.00,187.00
             219.00,187.00 220.00,187.00 220.00,187.00 Z
           M 280.00,187.00
           C 280.00,187.00 280.00,188.00 280.00,188.00
             280.00,188.00 279.00,187.00 279.00,187.00
             279.00,187.00 280.00,187.00 280.00,187.00 Z
           M 222.00,188.00
           C 222.00,188.00 222.00,189.00 222.00,189.00
             222.00,189.00 221.00,188.00 221.00,188.00
             221.00,188.00 222.00,188.00 222.00,188.00 Z
           M 263.00,189.00
           C 263.00,189.00 263.00,190.00 263.00,190.00
             263.00,190.00 262.00,189.00 262.00,189.00
             262.00,189.00 263.00,189.00 263.00,189.00 Z
           M 262.00,190.00
           C 262.00,190.00 262.00,191.00 262.00,191.00
             262.00,191.00 261.00,190.00 261.00,190.00
             261.00,190.00 262.00,190.00 262.00,190.00 Z
           M 282.00,190.00
           C 282.00,190.00 282.00,191.00 282.00,191.00
             282.00,191.00 281.00,190.00 281.00,190.00
             281.00,190.00 282.00,190.00 282.00,190.00 Z
           M 328.00,190.00
           C 328.00,190.00 328.00,195.00 328.00,195.00
             328.00,195.00 328.00,190.00 328.00,190.00 Z
           M 261.00,191.00
           C 261.00,191.00 261.00,192.00 261.00,192.00
             261.00,192.00 260.00,191.00 260.00,191.00
             260.00,191.00 261.00,191.00 261.00,191.00 Z
           M 283.00,191.00
           C 283.00,191.00 283.00,192.00 283.00,192.00
             283.00,192.00 282.00,191.00 282.00,191.00
             282.00,191.00 283.00,191.00 283.00,191.00 Z
           M 216.00,192.00
           C 216.00,192.00 216.00,197.00 216.00,197.00
             216.00,197.00 216.00,192.00 216.00,192.00 Z
           M 284.00,192.00
           C 284.00,192.00 284.00,193.00 284.00,193.00
             284.00,193.00 283.00,192.00 283.00,192.00
             283.00,192.00 284.00,192.00 284.00,192.00 Z
           M 260.00,193.00
           C 260.00,193.00 260.00,194.00 260.00,194.00
             260.00,194.00 259.00,193.00 259.00,193.00
             259.00,193.00 260.00,193.00 260.00,193.00 Z
           M 313.00,193.00
           C 313.00,193.00 313.00,194.00 313.00,194.00
             313.00,194.00 312.00,193.00 312.00,193.00
             312.00,193.00 313.00,193.00 313.00,193.00 Z
           M 259.00,194.00
           C 259.00,194.00 259.00,195.00 259.00,195.00
             259.00,195.00 258.00,194.00 258.00,194.00
             258.00,194.00 259.00,194.00 259.00,194.00 Z
           M 311.00,194.00
           C 311.00,194.00 311.00,195.00 311.00,195.00
             311.00,195.00 310.00,194.00 310.00,194.00
             310.00,194.00 311.00,194.00 311.00,194.00 Z
           M 258.00,195.00
           C 258.00,195.00 258.00,196.00 258.00,196.00
             258.00,196.00 257.00,195.00 257.00,195.00
             257.00,195.00 258.00,195.00 258.00,195.00 Z
           M 286.00,195.00
           C 286.00,195.00 286.00,196.00 286.00,196.00
             286.00,196.00 285.00,195.00 285.00,195.00
             285.00,195.00 286.00,195.00 286.00,195.00 Z
           M 309.00,195.00
           C 309.00,195.00 309.00,196.00 309.00,196.00
             309.00,196.00 308.00,195.00 308.00,195.00
             308.00,195.00 309.00,195.00 309.00,195.00 Z
           M 237.00,196.00
           C 237.00,196.00 237.00,197.00 237.00,197.00
             237.00,197.00 236.00,196.00 236.00,196.00
             236.00,196.00 237.00,196.00 237.00,196.00 Z
           M 287.00,196.00
           C 287.00,196.00 287.00,197.00 287.00,197.00
             287.00,197.00 286.00,196.00 286.00,196.00
             286.00,196.00 287.00,196.00 287.00,196.00 Z
           M 239.00,197.00
           C 239.00,197.00 239.00,198.00 239.00,198.00
             239.00,198.00 238.00,197.00 238.00,197.00
             238.00,197.00 239.00,197.00 239.00,197.00 Z
           M 288.00,197.00
           C 288.00,197.00 288.00,198.00 288.00,198.00
             288.00,198.00 287.00,197.00 287.00,197.00
             287.00,197.00 288.00,197.00 288.00,197.00 Z
           M 241.00,198.00
           C 241.00,198.00 241.00,199.00 241.00,199.00
             241.00,199.00 240.00,198.00 240.00,198.00
             240.00,198.00 241.00,198.00 241.00,198.00 Z
           M 256.00,198.00
           C 256.00,198.00 256.00,199.00 256.00,199.00
             256.00,199.00 255.00,198.00 255.00,198.00
             255.00,198.00 256.00,198.00 256.00,198.00 Z
           M 243.00,199.00
           C 243.00,199.00 243.00,200.00 243.00,200.00
             243.00,200.00 242.00,199.00 242.00,199.00
             242.00,199.00 243.00,199.00 243.00,199.00 Z
           M 255.00,199.00
           C 255.00,199.00 255.00,200.00 255.00,200.00
             255.00,200.00 254.00,199.00 254.00,199.00
             254.00,199.00 255.00,199.00 255.00,199.00 Z
           M 254.00,200.00
           C 254.00,200.00 254.00,201.00 254.00,201.00
             254.00,201.00 253.00,200.00 253.00,200.00
             253.00,200.00 254.00,200.00 254.00,200.00 Z
           M 290.00,200.00
           C 290.00,200.00 290.00,201.00 290.00,201.00
             290.00,201.00 289.00,200.00 289.00,200.00
             289.00,200.00 290.00,200.00 290.00,200.00 Z
           M 253.00,201.00
           C 253.00,201.00 266.00,202.00 266.00,202.00
             263.64,202.94 253.08,204.47 253.00,201.00 Z
           M 292.00,202.00
           C 292.00,202.00 279.00,203.00 279.00,203.00
             279.00,203.00 279.00,220.00 279.00,220.00
             279.00,220.00 278.00,202.00 278.00,202.00
             278.00,202.00 292.00,202.00 292.00,202.00 Z
           M 248.00,202.00
           C 248.00,202.00 248.00,203.00 248.00,203.00
             248.00,203.00 247.00,202.00 247.00,202.00
             247.00,202.00 248.00,202.00 248.00,202.00 Z
           M 296.00,202.00
           C 296.00,202.00 296.00,203.00 296.00,203.00
             296.00,203.00 295.00,202.00 295.00,202.00
             295.00,202.00 296.00,202.00 296.00,202.00 Z
           M 214.00,203.00
           C 214.00,203.00 214.00,208.00 214.00,208.00
             214.00,208.00 214.00,203.00 214.00,203.00 Z
           M 306.00,208.00
           C 306.00,208.00 306.00,209.00 306.00,209.00
             306.00,209.00 305.00,208.00 305.00,208.00
             305.00,208.00 306.00,208.00 306.00,208.00 Z
           M 213.00,209.00
           C 213.00,209.00 214.00,215.00 214.00,215.00
             211.66,212.90 211.91,211.83 213.00,209.00 Z
           M 239.00,209.00
           C 239.00,209.00 239.00,210.00 239.00,210.00
             239.00,210.00 238.00,209.00 238.00,209.00
             238.00,209.00 239.00,209.00 239.00,209.00 Z
           M 265.00,209.00
           C 265.00,209.00 265.00,227.00 265.00,227.00
             263.44,223.07 263.44,212.93 265.00,209.00 Z
           M 305.00,210.00
           C 305.00,210.00 305.00,211.00 305.00,211.00
             305.00,211.00 304.00,210.00 304.00,210.00
             304.00,210.00 305.00,210.00 305.00,210.00 Z
           M 320.00,210.00
           C 320.00,210.00 320.00,211.00 320.00,211.00
             320.00,211.00 319.00,210.00 319.00,210.00
             319.00,210.00 320.00,210.00 320.00,210.00 Z
           M 226.00,211.00
           C 226.00,211.00 226.00,212.00 226.00,212.00
             226.00,212.00 225.00,211.00 225.00,211.00
             225.00,211.00 226.00,211.00 226.00,211.00 Z
           M 240.00,211.00
           C 240.00,211.00 240.00,212.00 240.00,212.00
             240.00,212.00 239.00,211.00 239.00,211.00
             239.00,211.00 240.00,211.00 240.00,211.00 Z
           M 319.00,211.00
           C 319.00,211.00 319.00,212.00 319.00,212.00
             319.00,212.00 318.00,211.00 318.00,211.00
             318.00,211.00 319.00,211.00 319.00,211.00 Z
           M 227.00,213.00
           C 227.00,213.00 227.00,214.00 227.00,214.00
             227.00,214.00 226.00,213.00 226.00,213.00
             226.00,213.00 227.00,213.00 227.00,213.00 Z
           M 303.00,213.00
           C 303.00,213.00 303.00,214.00 303.00,214.00
             303.00,214.00 302.00,213.00 302.00,213.00
             302.00,213.00 303.00,213.00 303.00,213.00 Z
           M 242.00,214.00
           C 242.00,214.00 242.00,215.00 242.00,215.00
             242.00,215.00 241.00,214.00 241.00,214.00
             241.00,214.00 242.00,214.00 242.00,214.00 Z
           M 317.00,214.00
           C 317.00,214.00 317.00,215.00 317.00,215.00
             317.00,215.00 316.00,214.00 316.00,214.00
             316.00,214.00 317.00,214.00 317.00,214.00 Z
           M 229.00,216.00
           C 229.00,216.00 229.00,217.00 229.00,217.00
             229.00,217.00 228.00,216.00 228.00,216.00
             228.00,216.00 229.00,216.00 229.00,216.00 Z
           M 243.00,216.00
           C 243.00,216.00 243.00,217.00 243.00,217.00
             243.00,217.00 242.00,216.00 242.00,216.00
             242.00,216.00 243.00,216.00 243.00,216.00 Z
           M 316.00,216.00
           C 316.00,216.00 316.00,217.00 316.00,217.00
             316.00,217.00 315.00,216.00 315.00,216.00
             315.00,216.00 316.00,216.00 316.00,216.00 Z
           M 230.00,218.00
           C 230.00,218.00 230.00,219.00 230.00,219.00
             230.00,219.00 229.00,218.00 229.00,218.00
             229.00,218.00 230.00,218.00 230.00,218.00 Z
           M 300.00,218.00
           C 300.00,218.00 300.00,219.00 300.00,219.00
             300.00,219.00 299.00,218.00 299.00,218.00
             299.00,218.00 300.00,218.00 300.00,218.00 Z
           M 245.00,219.00
           C 245.00,219.00 245.00,220.00 245.00,220.00
             245.00,220.00 244.00,219.00 244.00,219.00
             244.00,219.00 245.00,219.00 245.00,219.00 Z
           M 314.00,219.00
           C 314.00,219.00 314.00,220.00 314.00,220.00
             314.00,220.00 313.00,219.00 313.00,219.00
             313.00,219.00 314.00,219.00 314.00,219.00 Z
           M 232.00,221.00
           C 232.00,221.00 232.00,222.00 232.00,222.00
             232.00,222.00 231.00,221.00 231.00,221.00
             231.00,221.00 232.00,221.00 232.00,221.00 Z
           M 246.00,221.00
           C 246.00,221.00 246.00,222.00 246.00,222.00
             246.00,222.00 245.00,221.00 245.00,221.00
             245.00,221.00 246.00,221.00 246.00,221.00 Z
           M 313.00,221.00
           C 313.00,221.00 313.00,222.00 313.00,222.00
             313.00,222.00 312.00,221.00 312.00,221.00
             312.00,221.00 313.00,221.00 313.00,221.00 Z
           M 297.00,223.00
           C 297.00,223.00 297.00,224.00 297.00,224.00
             297.00,224.00 296.00,223.00 296.00,223.00
             296.00,223.00 297.00,223.00 297.00,223.00 Z
           M 248.00,224.00
           C 248.00,224.00 248.00,225.00 248.00,225.00
             248.00,225.00 247.00,224.00 247.00,224.00
             247.00,224.00 248.00,224.00 248.00,224.00 Z
           M 280.00,225.00
           C 280.00,225.00 280.00,243.00 280.00,243.00
             278.44,239.07 278.44,228.93 280.00,225.00 Z
           M 235.00,226.00
           C 235.00,226.00 235.00,227.00 235.00,227.00
             235.00,227.00 234.00,226.00 234.00,226.00
             234.00,226.00 235.00,226.00 235.00,226.00 Z
           M 295.00,226.00
           C 295.00,226.00 295.00,227.00 295.00,227.00
             295.00,227.00 294.00,226.00 294.00,226.00
             294.00,226.00 295.00,226.00 295.00,226.00 Z
           M 294.00,228.00
           C 294.00,228.00 294.00,229.00 294.00,229.00
             294.00,229.00 293.00,228.00 293.00,228.00
             293.00,228.00 294.00,228.00 294.00,228.00 Z
           M 251.00,229.00
           C 251.00,229.00 251.00,230.00 251.00,230.00
             251.00,230.00 250.00,229.00 250.00,229.00
             250.00,229.00 251.00,229.00 251.00,229.00 Z
           M 292.00,231.00
           C 292.00,231.00 292.00,232.00 292.00,232.00
             292.00,232.00 291.00,231.00 291.00,231.00
             291.00,231.00 292.00,231.00 292.00,231.00 Z
           M 239.00,233.00
           C 239.00,233.00 239.00,234.00 239.00,234.00
             239.00,234.00 238.00,233.00 238.00,233.00
             238.00,233.00 239.00,233.00 239.00,233.00 Z
           M 264.00,233.00
           C 264.00,237.48 265.37,246.98 262.00,250.00
             262.00,250.00 264.00,233.00 264.00,233.00 Z
           M 291.00,233.00
           C 291.00,233.00 291.00,234.00 291.00,234.00
             291.00,234.00 290.00,233.00 290.00,233.00
             290.00,233.00 291.00,233.00 291.00,233.00 Z
           M 254.00,234.00
           C 254.00,234.00 254.00,235.00 254.00,235.00
             254.00,235.00 253.00,234.00 253.00,234.00
             253.00,234.00 254.00,234.00 254.00,234.00 Z
           M 240.00,235.00
           C 240.00,235.00 240.00,236.00 240.00,236.00
             240.00,236.00 239.00,235.00 239.00,235.00
             239.00,235.00 240.00,235.00 240.00,235.00 Z
           M 289.00,236.00
           C 289.00,236.00 289.00,237.00 289.00,237.00
             289.00,237.00 288.00,236.00 288.00,236.00
             288.00,236.00 289.00,236.00 289.00,236.00 Z
           M 256.00,237.00
           C 256.00,237.00 256.00,238.00 256.00,238.00
             256.00,238.00 255.00,237.00 255.00,237.00
             255.00,237.00 256.00,237.00 256.00,237.00 Z
           M 288.00,238.00
           C 288.00,238.00 288.00,239.00 288.00,239.00
             288.00,239.00 287.00,238.00 287.00,238.00
             287.00,238.00 288.00,238.00 288.00,238.00 Z
           M 242.00,239.00
           C 242.00,239.00 242.00,240.00 242.00,240.00
             242.00,240.00 241.00,239.00 241.00,239.00
             241.00,239.00 242.00,239.00 242.00,239.00 Z
           M 257.00,239.00
           C 257.00,239.00 257.00,240.00 257.00,240.00
             257.00,240.00 256.00,239.00 256.00,239.00
             256.00,239.00 257.00,239.00 257.00,239.00 Z
           M 286.00,241.00
           C 286.00,241.00 286.00,242.00 286.00,242.00
             286.00,242.00 285.00,241.00 285.00,241.00
             285.00,241.00 286.00,241.00 286.00,241.00 Z
           M 259.00,242.00
           C 259.00,242.00 259.00,243.00 259.00,243.00
             259.00,243.00 258.00,242.00 258.00,242.00
             258.00,242.00 259.00,242.00 259.00,242.00 Z
           M 260.00,244.00
           C 260.00,244.00 260.00,245.00 260.00,245.00
             260.00,245.00 259.00,244.00 259.00,244.00
             259.00,244.00 260.00,244.00 260.00,244.00 Z
           M 283.00,246.00
           C 283.00,246.00 283.00,247.00 283.00,247.00
             283.00,247.00 282.00,246.00 282.00,246.00
             282.00,246.00 283.00,246.00 283.00,246.00 Z
           M 262.00,247.00
           C 262.00,247.00 262.00,248.00 262.00,248.00
             262.00,248.00 261.00,247.00 261.00,247.00
             261.00,247.00 262.00,247.00 262.00,247.00 Z
           M 281.00,249.00
           C 281.00,249.00 281.00,250.00 281.00,250.00
             281.00,250.00 280.00,249.00 280.00,249.00
             280.00,249.00 281.00,249.00 281.00,249.00 Z
           M 253.00,273.00
           C 253.00,273.00 253.00,279.00 253.00,279.00
             253.00,279.00 253.00,273.00 253.00,273.00 Z
           M 292.00,276.00
           C 292.00,276.00 292.00,281.00 292.00,281.00
             292.00,281.00 292.00,276.00 292.00,276.00 Z
           M 254.00,281.00
           C 254.00,281.00 254.00,290.00 254.00,290.00
             252.69,286.70 252.69,284.30 254.00,281.00 Z
           M 291.00,282.00
           C 291.00,282.00 291.00,288.00 291.00,288.00
             291.00,288.00 291.00,282.00 291.00,282.00 Z
           M 290.00,290.00
           C 290.00,290.00 290.00,319.00 290.00,319.00
             288.34,314.82 288.34,294.18 290.00,290.00 Z
           M 255.00,296.00
           C 255.00,296.00 255.00,304.00 255.00,304.00
             253.75,300.83 253.75,299.17 255.00,296.00 Z
           M 254.00,310.00
           C 254.00,310.00 254.00,322.00 254.00,322.00
             252.54,318.31 252.54,313.69 254.00,310.00 Z
           M 291.00,322.00
           C 291.00,322.00 291.00,332.00 291.00,332.00
             289.65,328.59 289.65,325.41 291.00,322.00 Z
           M 253.00,325.00
           C 253.00,325.00 253.00,334.00 253.00,334.00
             253.00,334.00 291.00,334.00 291.00,334.00
             291.00,334.00 277.00,335.00 277.00,335.00
             277.00,335.00 252.00,335.00 252.00,335.00
             252.00,335.00 253.00,325.00 253.00,325.00 Z" />
</svg>
